<mxfile host="Electron" modified="2024-05-21T15:11:16.238Z" agent="Mozilla/5.0 (Windows NT 10.0; Win64; x64) AppleWebKit/537.36 (KHTML, like Gecko) draw.io/24.1.0 Chrome/120.0.6099.109 Electron/28.1.0 Safari/537.36" etag="v8E3n0GgAYhQ3-pQ261g" version="24.1.0" type="device">
  <diagram name="Страница — 1" id="sCvIo82w6kxL2k3GuaRd">
    <mxGraphModel dx="1418" dy="828" grid="1" gridSize="10" guides="1" tooltips="1" connect="1" arrows="1" fold="1" page="1" pageScale="1" pageWidth="827" pageHeight="1169" math="0" shadow="0">
      <root>
        <mxCell id="0" />
        <mxCell id="1" parent="0" />
        <mxCell id="plhr0QAP_pAW86cE8GCU-1" value="Начало" style="ellipse;whiteSpace=wrap;html=1;" vertex="1" parent="1">
          <mxGeometry x="310" y="160" width="120" height="80" as="geometry" />
        </mxCell>
        <mxCell id="plhr0QAP_pAW86cE8GCU-2" value="НачалоДня1 = ДатаНачалаРемонта И НачалоДня2 = ДатаОкончанияРемонта" style="rhombus;whiteSpace=wrap;html=1;" vertex="1" parent="1">
          <mxGeometry x="160" y="370" width="420" height="80" as="geometry" />
        </mxCell>
        <mxCell id="plhr0QAP_pAW86cE8GCU-3" value="Конец" style="ellipse;whiteSpace=wrap;html=1;" vertex="1" parent="1">
          <mxGeometry x="310" y="770" width="120" height="80" as="geometry" />
        </mxCell>
        <mxCell id="plhr0QAP_pAW86cE8GCU-4" value="Ввод: ДатаНачалаРемонта&lt;div&gt;ДатаОкончанияРемонта&lt;/div&gt;&lt;div&gt;КоличествоДнейВРемонте&lt;/div&gt;&lt;div&gt;РазницаСекунд&lt;/div&gt;" style="shape=parallelogram;perimeter=parallelogramPerimeter;whiteSpace=wrap;html=1;fixedSize=1;align=center;" vertex="1" parent="1">
          <mxGeometry x="220" y="280" width="300" height="60" as="geometry" />
        </mxCell>
        <mxCell id="plhr0QAP_pAW86cE8GCU-5" value="" style="endArrow=classic;html=1;rounded=0;" edge="1" parent="1" source="plhr0QAP_pAW86cE8GCU-1" target="plhr0QAP_pAW86cE8GCU-4">
          <mxGeometry width="50" height="50" relative="1" as="geometry">
            <mxPoint x="320" y="430" as="sourcePoint" />
            <mxPoint x="370" y="380" as="targetPoint" />
          </mxGeometry>
        </mxCell>
        <mxCell id="plhr0QAP_pAW86cE8GCU-6" value="" style="endArrow=classic;html=1;rounded=0;" edge="1" parent="1" source="plhr0QAP_pAW86cE8GCU-4" target="plhr0QAP_pAW86cE8GCU-2">
          <mxGeometry width="50" height="50" relative="1" as="geometry">
            <mxPoint x="380" y="250" as="sourcePoint" />
            <mxPoint x="380" y="290" as="targetPoint" />
          </mxGeometry>
        </mxCell>
        <mxCell id="plhr0QAP_pAW86cE8GCU-7" value="" style="endArrow=classic;html=1;rounded=0;exitX=0;exitY=0.5;exitDx=0;exitDy=0;edgeStyle=elbowEdgeStyle;" edge="1" parent="1" source="plhr0QAP_pAW86cE8GCU-2">
          <mxGeometry width="50" height="50" relative="1" as="geometry">
            <mxPoint x="320" y="430" as="sourcePoint" />
            <mxPoint x="370" y="720" as="targetPoint" />
            <Array as="points">
              <mxPoint x="110" y="580" />
            </Array>
          </mxGeometry>
        </mxCell>
        <mxCell id="plhr0QAP_pAW86cE8GCU-8" value="Нет" style="edgeLabel;html=1;align=center;verticalAlign=middle;resizable=0;points=[];" vertex="1" connectable="0" parent="plhr0QAP_pAW86cE8GCU-7">
          <mxGeometry x="-0.7667" y="2" relative="1" as="geometry">
            <mxPoint x="-2" y="-42" as="offset" />
          </mxGeometry>
        </mxCell>
        <mxCell id="plhr0QAP_pAW86cE8GCU-9" value="РазницаСекунд =&amp;nbsp; НачалоДня2 - НачалоДня1" style="rounded=0;whiteSpace=wrap;html=1;" vertex="1" parent="1">
          <mxGeometry x="550" y="480" width="200" height="60" as="geometry" />
        </mxCell>
        <mxCell id="plhr0QAP_pAW86cE8GCU-10" value="" style="endArrow=classic;html=1;rounded=0;edgeStyle=elbowEdgeStyle;elbow=vertical;entryX=0.5;entryY=0;entryDx=0;entryDy=0;" edge="1" parent="1" source="plhr0QAP_pAW86cE8GCU-2" target="plhr0QAP_pAW86cE8GCU-9">
          <mxGeometry width="50" height="50" relative="1" as="geometry">
            <mxPoint x="170" y="420" as="sourcePoint" />
            <mxPoint x="320" y="750" as="targetPoint" />
            <Array as="points">
              <mxPoint x="450" y="410" />
            </Array>
          </mxGeometry>
        </mxCell>
        <mxCell id="plhr0QAP_pAW86cE8GCU-11" value="Да" style="edgeLabel;html=1;align=center;verticalAlign=middle;resizable=0;points=[];" vertex="1" connectable="0" parent="plhr0QAP_pAW86cE8GCU-10">
          <mxGeometry x="-0.7667" y="2" relative="1" as="geometry">
            <mxPoint x="55" y="-12" as="offset" />
          </mxGeometry>
        </mxCell>
        <mxCell id="plhr0QAP_pAW86cE8GCU-12" value="КоличествоДнейВРемонте = РазницаСекунд / (24 * 3600)" style="rounded=0;whiteSpace=wrap;html=1;" vertex="1" parent="1">
          <mxGeometry x="550" y="610" width="200" height="60" as="geometry" />
        </mxCell>
        <mxCell id="plhr0QAP_pAW86cE8GCU-13" value="" style="endArrow=classic;html=1;rounded=0;" edge="1" parent="1" source="plhr0QAP_pAW86cE8GCU-9" target="plhr0QAP_pAW86cE8GCU-12">
          <mxGeometry width="50" height="50" relative="1" as="geometry">
            <mxPoint x="320" y="430" as="sourcePoint" />
            <mxPoint x="370" y="380" as="targetPoint" />
          </mxGeometry>
        </mxCell>
        <mxCell id="plhr0QAP_pAW86cE8GCU-14" value="" style="endArrow=classic;html=1;rounded=0;exitX=0.5;exitY=1;exitDx=0;exitDy=0;edgeStyle=orthogonalEdgeStyle;entryX=0.5;entryY=0;entryDx=0;entryDy=0;" edge="1" parent="1" source="plhr0QAP_pAW86cE8GCU-12" target="plhr0QAP_pAW86cE8GCU-3">
          <mxGeometry width="50" height="50" relative="1" as="geometry">
            <mxPoint x="650" y="690" as="sourcePoint" />
            <mxPoint x="370" y="690" as="targetPoint" />
          </mxGeometry>
        </mxCell>
      </root>
    </mxGraphModel>
  </diagram>
</mxfile>
